<svg width="19" height="19" viewBox="0 0 19 19" fill="none" xmlns="http://www.w3.org/2000/svg">
<path d="M8.588 6.836C8.796 7.036 9.052 7.136 9.356 7.136C9.66 7.136 9.912 7.036 10.112 6.836C10.32 6.628 10.424 6.372 10.424 6.068C10.424 5.764 10.32 5.512 10.112 5.312C9.912 5.104 9.66 5 9.356 5C9.052 5 8.796 5.104 8.588 5.312C8.388 5.512 8.288 5.764 8.288 6.068C8.288 6.372 8.388 6.628 8.588 6.836Z" fill="#5988FF"/>
<path d="M8.144 13.988C8.24 14.06 8.364 14.096 8.516 14.096H10.616C10.776 14.096 10.904 14.06 11 13.988C11.096 13.908 11.144 13.788 11.144 13.628V13.16C11.144 13 11.096 12.884 11 12.812C10.904 12.732 10.776 12.692 10.616 12.692H10.4V8.648C10.4 8.488 10.348 8.356 10.244 8.252C10.14 8.148 10.008 8.096 9.848 8.096H8.516C8.172 8.096 8 8.252 8 8.564V9.032C8 9.192 8.048 9.312 8.144 9.392C8.24 9.464 8.364 9.5 8.516 9.5H8.744V12.692H8.516C8.364 12.692 8.24 12.732 8.144 12.812C8.048 12.884 8 13 8 13.16V13.628C8 13.788 8.048 13.908 8.144 13.988Z" fill="#5988FF"/>
<path fill-rule="evenodd" clip-rule="evenodd" d="M19 9.5C19 14.7467 14.7467 19 9.5 19C4.25329 19 0 14.7467 0 9.5C0 4.25329 4.25329 0 9.5 0C14.7467 0 19 4.25329 19 9.5ZM17 9.5C17 13.6421 13.6421 17 9.5 17C5.35786 17 2 13.6421 2 9.5C2 5.35786 5.35786 2 9.5 2C13.6421 2 17 5.35786 17 9.5Z" fill="#5988FF"/>
</svg>
