<svg width="278" height="62" viewBox="0 0 278 62" fill="none" xmlns="http://www.w3.org/2000/svg">
<circle cx="34.058" cy="37.0652" r="15.942" transform="rotate(90 34.058 37.0652)" fill="#B640ED"/>
<circle cx="41.7971" cy="12.8043" r="3.80435" transform="rotate(90 41.7971 12.8043)" fill="#F98D0F"/>
<ellipse cx="10.3261" cy="17.3188" rx="10.3261" ry="10.3261" transform="rotate(-90 10.3261 17.3188)" fill="#3F31DE"/>
<ellipse cx="8.33332" cy="43.3406" rx="6.34058" ry="6.34058" transform="rotate(-90 8.33332 43.3406)" fill="#337D3B"/>
<path d="M80.456 47.624C77.6827 47.624 75.3947 47.2253 73.592 46.428C71.824 45.596 70.524 44.452 69.692 42.996C68.8947 41.54 68.5653 39.8587 68.704 37.952C68.7387 37.328 68.9467 37.016 69.328 37.016H72.604C73.02 37.016 73.228 37.2933 73.228 37.848C73.228 39.9627 73.852 41.488 75.1 42.424C76.348 43.3253 78.2547 43.776 80.82 43.776C83.2813 43.776 85.136 43.3427 86.384 42.476C87.6667 41.5747 88.308 40.2227 88.308 38.42C88.308 37.5187 88.152 36.756 87.84 36.132C87.5627 35.4733 87.0773 34.9013 86.384 34.416C85.6907 33.9307 84.7547 33.4453 83.576 32.96L75.932 29.788C74.3373 29.1293 73.0373 28.4013 72.032 27.604C71.0613 26.772 70.3507 25.836 69.9 24.796C69.484 23.7213 69.276 22.508 69.276 21.156C69.3107 18.2787 70.264 16.0947 72.136 14.604C74.0427 13.1133 76.7987 12.368 80.404 12.368C82.8653 12.368 84.9973 12.732 86.8 13.46C88.6027 14.188 89.972 15.2453 90.908 16.632C91.844 18.0187 92.2253 19.7173 92.052 21.728C91.9827 22.3867 91.792 22.716 91.48 22.716H88.152C87.9787 22.716 87.84 22.6467 87.736 22.508C87.6667 22.3693 87.6493 22.1093 87.684 21.728C87.8227 19.96 87.216 18.608 85.864 17.672C84.5467 16.7013 82.6747 16.216 80.248 16.216C78.0987 16.216 76.4693 16.5973 75.36 17.36C74.2853 18.1227 73.7307 19.3013 73.696 20.896C73.696 21.728 73.8347 22.456 74.112 23.08C74.424 23.704 74.9267 24.276 75.62 24.796C76.348 25.316 77.336 25.836 78.584 26.356L86.124 29.528C87.7187 30.1867 89.0013 30.9147 89.972 31.712C90.9427 32.5093 91.636 33.4453 92.052 34.52C92.5027 35.56 92.728 36.8253 92.728 38.316C92.728 41.228 91.74 43.516 89.764 45.18C87.788 46.8093 84.6853 47.624 80.456 47.624ZM111.993 47.624C107.659 47.624 104.418 46.5667 102.269 44.452C100.154 42.3027 99.0968 39.2867 99.0968 35.404V24.536C99.0968 20.6187 100.154 17.6027 102.269 15.488C104.418 13.3733 107.659 12.316 111.993 12.316C116.326 12.316 119.55 13.3733 121.665 15.488C123.814 17.6027 124.889 20.6187 124.889 24.536V35.404C124.889 39.2867 123.814 42.3027 121.665 44.452C119.55 46.5667 116.326 47.624 111.993 47.624ZM111.993 43.724C114.766 43.724 116.863 43.0133 118.285 41.592C119.741 40.1707 120.469 38.0907 120.469 35.352V24.588C120.469 21.8147 119.741 19.7347 118.285 18.348C116.863 16.9267 114.766 16.216 111.993 16.216C109.254 16.216 107.157 16.9267 105.701 18.348C104.245 19.7347 103.517 21.8147 103.517 24.588V35.352C103.517 38.0907 104.245 40.1707 105.701 41.592C107.157 43.0133 109.254 43.724 111.993 43.724ZM133.604 47C133.257 47 133.084 46.8267 133.084 46.48V13.46C133.084 13.1133 133.257 12.94 133.604 12.94H152.116C152.463 12.94 152.636 13.1133 152.636 13.46V16.424C152.636 16.7707 152.463 16.944 152.116 16.944H137.504V28.28H150.14C150.487 28.28 150.66 28.4533 150.66 28.8V31.608C150.66 31.9547 150.487 32.128 150.14 32.128H137.504V46.48C137.504 46.8267 137.331 47 136.984 47H133.604ZM155.72 47.624C154.68 47.624 153.934 47.364 153.484 46.844C153.033 46.2893 152.808 45.5787 152.808 44.712V44.192C152.808 43.3253 153.033 42.632 153.484 42.112C153.934 41.5573 154.68 41.28 155.72 41.28C156.76 41.28 157.505 41.5573 157.956 42.112C158.406 42.632 158.632 43.3253 158.632 44.192V44.712C158.632 45.5787 158.406 46.2893 157.956 46.844C157.505 47.364 156.76 47.624 155.72 47.624ZM166.713 47C166.367 47 166.193 46.8267 166.193 46.48V13.46C166.193 13.1133 166.367 12.94 166.713 12.94H170.093C170.44 12.94 170.613 13.1133 170.613 13.46V46.48C170.613 46.8267 170.44 47 170.093 47H166.713ZM175.495 47C175.114 47 174.975 46.8093 175.079 46.428L186.571 13.356C186.675 13.0787 186.883 12.94 187.195 12.94H191.823C192.135 12.94 192.343 13.0787 192.447 13.356L204.095 46.428C204.165 46.6013 204.147 46.74 204.043 46.844C203.974 46.948 203.853 47 203.679 47H199.987C199.675 47 199.467 46.8613 199.363 46.584L191.563 23.184C191.217 22.144 190.87 21.104 190.523 20.064C190.177 19.024 189.813 17.984 189.431 16.944H189.379C189.033 17.9493 188.686 18.972 188.339 20.012C187.993 21.0173 187.646 22.0227 187.299 23.028L179.603 46.584C179.499 46.8613 179.291 47 178.979 47H175.495ZM181.267 39.044L182.359 35.196H196.503L197.647 39.044H181.267ZM210.928 49.52C210.496 49.172 210.16 48.836 209.92 48.512C209.68 48.188 209.506 47.828 209.398 47.432C209.302 47.036 209.254 46.568 209.254 46.028V37.964C209.254 37.412 209.308 36.95 209.416 36.578C209.536 36.206 209.722 35.858 209.974 35.534C210.226 35.21 210.544 34.856 210.928 34.472C210.964 34.436 211.006 34.418 211.054 34.418C211.102 34.418 211.144 34.436 211.18 34.472L211.918 35.21C211.954 35.246 211.972 35.288 211.972 35.336C211.984 35.372 211.966 35.414 211.918 35.462C211.642 35.738 211.42 35.99 211.252 36.218C211.084 36.434 210.964 36.674 210.892 36.938C210.82 37.202 210.784 37.544 210.784 37.964V46.028C210.784 46.436 210.826 46.766 210.91 47.018C210.994 47.282 211.12 47.522 211.288 47.738C211.456 47.954 211.666 48.218 211.918 48.53C211.954 48.578 211.972 48.62 211.972 48.656C211.972 48.704 211.954 48.746 211.918 48.782L211.18 49.52C211.144 49.556 211.102 49.574 211.054 49.574C211.018 49.574 210.976 49.556 210.928 49.52ZM218.048 47.216C217.592 47.216 217.118 47.156 216.626 47.036C216.134 46.916 215.738 46.754 215.438 46.55L215.384 45.254C215.732 45.446 216.116 45.596 216.536 45.704C216.956 45.812 217.352 45.866 217.724 45.866C218.42 45.866 218.93 45.662 219.254 45.254C219.578 44.846 219.74 44.234 219.74 43.418V41.438C219.74 40.718 219.614 40.19 219.362 39.854C219.11 39.518 218.738 39.35 218.246 39.35C217.826 39.35 217.4 39.476 216.968 39.728C216.548 39.968 215.99 40.4 215.294 41.024V39.584C215.702 39.212 216.08 38.912 216.428 38.684C216.788 38.444 217.136 38.27 217.472 38.162C217.82 38.054 218.186 38 218.57 38C219.458 38 220.13 38.276 220.586 38.828C221.042 39.38 221.27 40.22 221.27 41.348V43.598C221.27 44.762 220.994 45.656 220.442 46.28C219.89 46.904 219.092 47.216 218.048 47.216ZM214.286 50.33C214.166 50.33 214.106 50.27 214.106 50.15V40.25C214.106 39.974 214.094 39.668 214.07 39.332C214.046 38.996 214.016 38.696 213.98 38.432C213.968 38.288 214.028 38.216 214.16 38.216H215.258C215.378 38.216 215.444 38.276 215.456 38.396C215.48 38.48 215.504 38.6 215.528 38.756C215.552 38.912 215.57 39.068 215.582 39.224C215.594 39.368 215.594 39.47 215.582 39.53L215.636 40.43V50.15C215.636 50.27 215.576 50.33 215.456 50.33H214.286ZM223.954 47C223.834 47 223.774 46.94 223.774 46.82V40.358C223.774 40.022 223.762 39.698 223.738 39.386C223.726 39.062 223.696 38.738 223.648 38.414C223.624 38.282 223.684 38.216 223.828 38.216H224.926C224.986 38.216 225.028 38.228 225.052 38.252C225.088 38.276 225.112 38.318 225.124 38.378C225.172 38.606 225.208 38.87 225.232 39.17C225.256 39.458 225.268 39.704 225.268 39.908L225.304 40.862V46.82C225.304 46.94 225.244 47 225.124 47H223.954ZM225.106 41.402L225.07 39.926C225.322 39.554 225.61 39.224 225.934 38.936C226.27 38.648 226.606 38.42 226.942 38.252C227.29 38.084 227.608 38 227.896 38C228.112 38 228.274 38.018 228.382 38.054C228.442 38.066 228.478 38.09 228.49 38.126C228.514 38.15 228.532 38.186 228.544 38.234C228.568 38.486 228.574 38.744 228.562 39.008C228.562 39.272 228.544 39.524 228.508 39.764C228.496 39.824 228.466 39.866 228.418 39.89C228.382 39.914 228.334 39.92 228.274 39.908C228.178 39.884 228.076 39.866 227.968 39.854C227.86 39.842 227.746 39.836 227.626 39.836C227.326 39.836 227.026 39.902 226.726 40.034C226.426 40.166 226.138 40.352 225.862 40.592C225.586 40.82 225.334 41.09 225.106 41.402ZM233.362 47.216C232.21 47.216 231.322 46.946 230.698 46.406C230.086 45.866 229.78 45.068 229.78 44.012V41.492C229.78 40.352 230.086 39.488 230.698 38.9C231.31 38.3 232.198 38 233.362 38C234.526 38 235.408 38.294 236.008 38.882C236.62 39.458 236.926 40.298 236.926 41.402V42.806C236.926 42.926 236.866 42.986 236.746 42.986H231.31V43.562C231.31 44.366 231.478 44.954 231.814 45.326C232.15 45.686 232.696 45.866 233.452 45.866C234.016 45.866 234.448 45.776 234.748 45.596C235.06 45.404 235.216 45.128 235.216 44.768C235.216 44.636 235.282 44.57 235.414 44.57H236.584C236.68 44.57 236.74 44.624 236.764 44.732C236.812 45.5 236.53 46.106 235.918 46.55C235.306 46.994 234.454 47.216 233.362 47.216ZM231.31 41.672H235.396V41.564C235.396 40.808 235.228 40.25 234.892 39.89C234.556 39.53 234.052 39.35 233.38 39.35C232.684 39.35 232.162 39.536 231.814 39.908C231.478 40.28 231.31 40.838 231.31 41.582V41.672ZM241.44 47C241.332 47 241.26 46.952 241.224 46.856L238.29 38.414C238.254 38.282 238.302 38.216 238.434 38.216H239.676C239.784 38.216 239.856 38.264 239.892 38.36L241.494 43.4C241.626 43.808 241.758 44.222 241.89 44.642C242.022 45.05 242.148 45.464 242.268 45.884H242.304C242.424 45.464 242.55 45.05 242.682 44.642C242.814 44.234 242.946 43.826 243.078 43.418L244.68 38.36C244.716 38.264 244.788 38.216 244.896 38.216H246.138C246.27 38.216 246.318 38.282 246.282 38.414L243.33 46.856C243.294 46.952 243.222 47 243.114 47H241.44ZM248.282 47C248.162 47 248.102 46.94 248.102 46.82V38.396C248.102 38.276 248.162 38.216 248.282 38.216H249.452C249.572 38.216 249.632 38.276 249.632 38.396V46.82C249.632 46.94 249.572 47 249.452 47H248.282ZM248.876 36.74C248.528 36.74 248.276 36.65 248.12 36.47C247.964 36.278 247.886 36.038 247.886 35.75V35.57C247.886 35.282 247.964 35.048 248.12 34.868C248.276 34.676 248.528 34.58 248.876 34.58C249.224 34.58 249.476 34.676 249.632 34.868C249.788 35.048 249.866 35.282 249.866 35.57V35.75C249.866 36.038 249.788 36.278 249.632 36.47C249.476 36.65 249.224 36.74 248.876 36.74ZM255.686 47.216C254.534 47.216 253.646 46.946 253.022 46.406C252.41 45.866 252.104 45.068 252.104 44.012V41.492C252.104 40.352 252.41 39.488 253.022 38.9C253.634 38.3 254.522 38 255.686 38C256.85 38 257.732 38.294 258.332 38.882C258.944 39.458 259.25 40.298 259.25 41.402V42.806C259.25 42.926 259.19 42.986 259.07 42.986H253.634V43.562C253.634 44.366 253.802 44.954 254.138 45.326C254.474 45.686 255.02 45.866 255.776 45.866C256.34 45.866 256.772 45.776 257.072 45.596C257.384 45.404 257.54 45.128 257.54 44.768C257.54 44.636 257.606 44.57 257.738 44.57H258.908C259.004 44.57 259.064 44.624 259.088 44.732C259.136 45.5 258.854 46.106 258.242 46.55C257.63 46.994 256.778 47.216 255.686 47.216ZM253.634 41.672H257.72V41.564C257.72 40.808 257.552 40.25 257.216 39.89C256.88 39.53 256.376 39.35 255.704 39.35C255.008 39.35 254.486 39.536 254.138 39.908C253.802 40.28 253.634 40.838 253.634 41.582V41.672ZM263.51 47C263.414 47 263.348 46.946 263.312 46.838L260.702 38.414C260.666 38.282 260.714 38.216 260.846 38.216H262.106C262.202 38.216 262.268 38.27 262.304 38.378L263.726 43.346C263.834 43.73 263.942 44.114 264.05 44.498C264.158 44.882 264.266 45.266 264.374 45.65H264.41C264.53 45.278 264.65 44.906 264.77 44.534C264.89 44.162 265.01 43.79 265.13 43.418L266.102 40.412L265.562 38.594C265.526 38.462 265.574 38.396 265.706 38.396H266.84C266.948 38.396 267.014 38.444 267.038 38.54L268.37 43.436C268.466 43.808 268.562 44.18 268.658 44.552C268.754 44.912 268.85 45.278 268.946 45.65H268.982C269.09 45.266 269.192 44.888 269.288 44.516C269.396 44.132 269.504 43.754 269.612 43.382L271.052 38.378C271.088 38.27 271.154 38.216 271.25 38.216H272.51C272.642 38.216 272.69 38.282 272.654 38.414L270.026 46.838C270.014 46.886 269.99 46.928 269.954 46.964C269.93 46.988 269.888 47 269.828 47H268.19C268.094 47 268.028 46.952 267.992 46.856L267.434 45.02C267.314 44.612 267.2 44.198 267.092 43.778C266.984 43.358 266.87 42.908 266.75 42.428H266.714C266.594 42.908 266.468 43.352 266.336 43.76C266.216 44.168 266.09 44.57 265.958 44.966L265.346 46.856C265.31 46.952 265.244 47 265.148 47H263.51ZM274.703 49.52L273.965 48.782C273.929 48.746 273.911 48.704 273.911 48.656C273.911 48.62 273.929 48.578 273.965 48.53C274.241 48.242 274.457 47.984 274.613 47.756C274.781 47.54 274.901 47.3 274.973 47.036C275.057 46.772 275.099 46.436 275.099 46.028V37.964C275.099 37.544 275.063 37.202 274.991 36.938C274.919 36.674 274.799 36.434 274.631 36.218C274.463 35.99 274.241 35.738 273.965 35.462C273.917 35.414 273.893 35.372 273.893 35.336C273.905 35.288 273.929 35.246 273.965 35.21L274.703 34.472C274.739 34.436 274.781 34.418 274.829 34.418C274.877 34.418 274.919 34.436 274.955 34.472C275.375 34.832 275.705 35.18 275.945 35.516C276.185 35.84 276.359 36.194 276.467 36.578C276.575 36.95 276.629 37.412 276.629 37.964V46.028C276.629 46.568 276.581 47.036 276.485 47.432C276.389 47.828 276.215 48.188 275.963 48.512C275.723 48.836 275.387 49.172 274.955 49.52C274.907 49.556 274.859 49.574 274.811 49.574C274.775 49.574 274.739 49.556 274.703 49.52Z" fill="black"/>
</svg>
