<svg id="thumb" viewBox="0 0 50 46" fill="currentColor" xmlns="http://www.w3.org/2000/svg">
<path d="M12.5397 21.1059L23.5746 3.04876C26.0825 -0.932209 31.6 -1.09944 31.7672 3.04876V15.9229C31.8229 17.0932 32.2688 18.2636 34.9439 18.2636H44.6413C46.8148 18.5422 50.8944 20.3703 49.8243 25.453C48.7543 30.5358 45.923 38.7172 44.6413 42.1725C44.5827 42.2922 44.5256 42.4105 44.4694 42.5276C43.7227 44.0805 43.0927 45.3906 40.2942 45.5164H20.0635C17.5556 45.2806 12.5397 44.0728 12.5397 41.1302V21.1059Z"/>
<path d="M1.67196 18.5979C0.748562 18.5979 0 19.3465 0 20.2699V43.6772C0 44.6008 0.748562 45.3492 1.67196 45.3492H9.69735C10.6207 45.3492 11.3693 44.6008 11.3693 43.6772V20.2699C11.3693 19.3465 10.6207 18.5979 9.69735 18.5979H1.67196Z"/>
</svg>
